<?xml version="1.0" encoding="utf-8"?>
<!-- Generator: Adobe Illustrator 18.0.0, SVG Export Plug-In . SVG Version: 6.00 Build 0)  -->
<!DOCTYPE svg PUBLIC "-//W3C//DTD SVG 1.1//EN" "http://www.w3.org/Graphics/SVG/1.1/DTD/svg11.dtd">
<svg version="1.1" id="Layer_1" xmlns="http://www.w3.org/2000/svg" xmlns:xlink="http://www.w3.org/1999/xlink" x="0px" y="0px"
	 viewBox="0 0 539.3 130" enable-background="new 0 0 539.3 130" xml:space="preserve">
<g>
	<g>
		<path fill="#121D35" d="M268,13.1l-30.4,74.2h-6.1L201,13.1h6.1l27.4,67.6l27.4-67.6H268z"/>
		<path fill="#121D35" d="M264.9,61c0-15.6,11.8-26.9,26.5-26.9c14.7,0,27.8,9,25.8,29.4h-47c1.1,12.3,10.5,19.3,21.2,19.3
			c6.9,0,14.9-2.7,18.8-7.9l3.7,3c-5.1,6.7-14.2,10-22.5,10C276.7,87.8,264.9,77.6,264.9,61z M312.5,58.9
			c-0.1-12.9-8.6-20.1-21.1-20.1c-10.8,0-20.1,7.3-21.2,20.1H312.5z"/>
		<path fill="#121D35" d="M331.6,34.9l0.2,9.3c3.3-7.1,10.7-9.8,17.3-9.8c3.9-0.1,7.7,1,11.2,3.1l-2.3,4.2c-2.7-1.7-5.8-2.4-8.9-2.4
			c-9.7,0.1-17.2,7.9-17.2,17.4v30.4h-5.2V34.9H331.6z"/>
		<path fill="#121D35" d="M380.2,19.2v15.7H398v4.3h-17.7V71c0,7.1,1.5,12,9.6,12c2.5,0,5.4-0.8,8-2.1l1.8,4.2
			c-3.3,1.6-6.6,2.6-9.8,2.6c-11.1,0-14.7-6.6-14.7-16.8V39.2h-11.1v-4.3h11.1V19.7L380.2,19.2z"/>
		<path fill="#121D35" d="M413.5,17.9c0,5.5-8.3,5.5-8.3,0S413.5,12.4,413.5,17.9z M406.6,34.7v52.4h5.2V34.7H406.6z"/>
		<path fill="#121D35" d="M466.3,79.8c-5.3,5.3-12.1,7.8-19,7.8c-14.7,0-26.8-10.1-26.8-26.6s11.7-26.6,26.8-26.6
			c6.9,0,13.7,2.6,19,7.8l-3.4,3.3c-4.2-4.2-10-6.2-15.6-6.2c-11.8,0-21.8,7.7-21.8,21.8s9.9,21.8,21.8,21.8
			c5.6,0,11.3-2.2,15.5-6.4L466.3,79.8z"/>
		<path fill="#121D35" d="M522.3,34.9c0,17.4,0,34.8,0,52.2h-5.2V76c-5.1,8.1-12.9,11.9-21.3,11.9c-14.6,0-26.5-11-26.5-26.9
			c0-16,11.9-26.7,26.5-26.7c8.5,0,17,3.9,21.3,12V34.9H522.3z M474.5,61c0,13.1,9.5,21.9,21.3,21.9c29.1,0,29.1-43.6,0-43.6
			C484,39.2,474.5,47.9,474.5,61z"/>
		<path fill="#121D35" d="M539.3,13.1v74h-5.2v-74H539.3z"/>
	</g>
	<g>
		<path fill="#121D35" d="M45.9,79.8c-5.3,5.3-12.2,7.8-19,7.8C12.2,87.6,0,77.5,0,61s11.7-26.6,26.8-26.6c6.9,0,13.7,2.6,19,7.8
			l-3.4,3.3c-4.2-4.2-10-6.2-15.6-6.2C15,39.2,5.1,47,5.1,61S15,82.8,26.8,82.8c5.6,0,11.3-2.2,15.5-6.4L45.9,79.8z"/>
		<path fill="#121D35" d="M101.9,34.9c0,17.4,0,34.8,0,52.2h-5.2V76C91.6,84.2,83.8,88,75.3,88C60.8,88,48.8,77,48.8,61
			c0-16,11.9-26.7,26.5-26.7c8.5,0,17,3.9,21.3,12V34.9H101.9z M54,61c0,13.1,9.5,21.9,21.3,21.9c29.1,0,29.1-43.6,0-43.6
			C63.5,39.2,54,47.9,54,61z"/>
		<path fill="#121D35" d="M118.5,34.9l0.2,9.3c3.3-7.1,10.7-9.8,17.3-9.8c3.9-0.1,7.7,1,11.2,3.1l-2.3,4.2c-2.7-1.7-5.8-2.4-8.9-2.4
			c-9.7,0.1-17.2,7.9-17.2,17.4v30.4h-5.2V34.9H118.5z"/>
	</g>
	<linearGradient id="SVGID_1_" gradientUnits="userSpaceOnUse" x1="173.6266" y1="129" x2="173.6266" y2="-2.246452e-10">
		<stop  offset="0" style="stop-color:#FFC132"/>
		<stop  offset="1" style="stop-color:#F88243"/>
	</linearGradient>
	<path fill="url(#SVGID_1_)" d="M168.6,0v129h10V0H168.6z"/>
</g>
</svg>
