<?xml version="1.0" encoding="utf-8"?>
<!-- Generator: Adobe Illustrator 23.0.1, SVG Export Plug-In . SVG Version: 6.00 Build 0)  -->
<svg version="1.1" id="Layer_1" xmlns="http://www.w3.org/2000/svg" xmlns:xlink="http://www.w3.org/1999/xlink" x="0px" y="0px"
	 viewBox="0 0 1265 420" style="enable-background:new 0 0 1265 420;" xml:space="preserve">
<style type="text/css">
	.st0{fill:#FFFFFF;stroke:#4D4D4D;stroke-width:10;stroke-miterlimit:10;}
	.st1{fill:#DFAB3C;}
	.st2{fill:url(#SVGID_1_);}
	.st3{fill:url(#SVGID_2_);}
	.st4{fill:#4D4D4D;}
</style>
<path class="st0" d="M1193.5,415H71.5C34.9,415,5,385.1,5,348.5v-277C5,34.9,34.9,5,71.5,5h1122c36.6,0,66.5,29.9,66.5,66.5v277
	C1260,385.1,1230.1,415,1193.5,415z"/>
<g>
	<circle class="st1" cx="206.3" cy="208.8" r="146.8"/>
	<linearGradient id="SVGID_1_" gradientUnits="userSpaceOnUse" x1="18.7769" y1="208.6292" x2="478.2804" y2="208.6292">
		<stop  offset="0" style="stop-color:#1A1A1A"/>
		<stop  offset="1.086432e-02" style="stop-color:#191919"/>
		<stop  offset="0.2443" style="stop-color:#0B0B0B"/>
		<stop  offset="0.5279" style="stop-color:#030303"/>
		<stop  offset="1" style="stop-color:#000000"/>
	</linearGradient>
	<path class="st2" d="M250.8,228.4c-7.6,17.4-25,29-44.5,29c-26.8,0-48.6-21.8-48.6-48.6s21.8-48.6,48.6-48.6
		c19.4,0,36.7,11.5,44.4,28.8h27.8c-7.5-27.5-30-48-57.2-53.5v-12h-26.3v11.3c-35.9,5.5-63.6,36.6-63.6,74c0,36,25.6,66.2,59.5,73.3
		v11.6h26.3v-10.8c29.1-4.3,53.5-25.5,61.3-54.5H250.8z"/>
	<linearGradient id="SVGID_2_" gradientUnits="userSpaceOnUse" x1="18.7769" y1="208.6292" x2="478.2804" y2="208.6292">
		<stop  offset="0" style="stop-color:#1A1A1A"/>
		<stop  offset="1.086432e-02" style="stop-color:#191919"/>
		<stop  offset="0.2443" style="stop-color:#0B0B0B"/>
		<stop  offset="0.5279" style="stop-color:#030303"/>
		<stop  offset="1" style="stop-color:#000000"/>
	</linearGradient>
	<path class="st3" d="M284.6,237.4c-9.7,26.5-32.2,46.1-59.2,52.5v11.9h-42.5v-13c-13.3-3.9-25.5-11-35.5-21.1
		C131.7,252,123,231.1,123,208.8c0-22.3,8.7-43.2,24.4-58.9c11.1-11.1,24.7-18.6,39.5-22.1v-12.3h42.5v13.3
		c25.3,7.3,46.1,26.3,55.3,51.6h27.5c-11.5-42.9-47.8-74.2-90.9-80.1V89.2h-26.3v10.6c-25,2.5-48.2,13.5-66.2,31.5
		c-20.7,20.7-32.1,48.2-32.1,77.5s11.4,56.8,32.1,77.5c17,17,38.7,27.8,62.2,31v10.7h26.3v-10.2c44.8-4.5,83-36.3,94.9-80.4H284.6z"
		/>
</g>
<g>
	<path class="st1" d="M535.2,187.6c0.8,0,1.5,0.1,2.3,0.4s1.5,0.8,2.2,1.5l12.7,13.4c-5.6,7.3-12.6,12.8-20.9,16.5
		c-8.4,3.7-18.3,5.6-29.8,5.6c-10.5,0-19.9-1.8-28.3-5.4c-8.3-3.6-15.4-8.5-21.2-14.8c-5.8-6.3-10.2-13.8-13.3-22.4
		c-3.1-8.6-4.7-18-4.7-28.2c0-10.3,1.7-19.8,5-28.5c3.4-8.6,8.1-16.1,14.2-22.4c6.1-6.3,13.4-11.1,21.9-14.6
		c8.5-3.5,17.8-5.2,28-5.2c5.2,0,10.1,0.5,14.7,1.4c4.6,0.9,8.9,2.2,12.9,3.8c4,1.6,7.7,3.6,11,5.8c3.4,2.3,6.3,4.8,8.9,7.4
		L540,116.4c-0.7,0.9-1.5,1.7-2.5,2.4c-1,0.7-2.3,1.1-4,1.1c-1.1,0-2.2-0.3-3.2-0.8c-1-0.5-2.1-1.1-3.2-1.9
		c-1.1-0.7-2.4-1.5-3.8-2.4c-1.4-0.9-3-1.6-4.8-2.4c-1.9-0.7-4.1-1.3-6.6-1.9c-2.5-0.5-5.4-0.8-8.8-0.8c-5.3,0-10.2,1-14.6,2.9
		c-4.4,2-8.2,4.8-11.4,8.6c-3.2,3.8-5.7,8.4-7.4,13.9c-1.7,5.5-2.6,11.7-2.6,18.8c0,7.1,1,13.4,2.9,18.9c1.9,5.5,4.6,10.1,7.9,13.9
		c3.3,3.8,7.2,6.6,11.6,8.6c4.4,2,9.2,2.9,14.3,2.9c2.9,0,5.6-0.1,8-0.4c2.4-0.3,4.7-0.8,6.7-1.4s4.1-1.6,5.9-2.7
		c1.8-1.1,3.7-2.5,5.6-4.2c0.8-0.6,1.6-1.2,2.5-1.6C533.4,187.8,534.3,187.6,535.2,187.6z"/>
	<path class="st1" d="M596.2,97.9c0,2.3-0.5,4.5-1.4,6.6c-1,2.1-2.2,3.9-3.9,5.4c-1.6,1.6-3.6,2.8-5.7,3.7c-2.2,0.9-4.5,1.4-7,1.4
		c-2.4,0-4.7-0.5-6.7-1.4c-2.1-0.9-3.9-2.2-5.6-3.7c-1.6-1.6-2.9-3.4-3.8-5.4c-0.9-2.1-1.4-4.3-1.4-6.6c0-2.4,0.5-4.7,1.4-6.7
		c0.9-2.1,2.2-3.9,3.8-5.5c1.6-1.6,3.5-2.8,5.6-3.7c2.1-0.9,4.3-1.3,6.7-1.3c2.5,0,4.8,0.4,7,1.3c2.2,0.9,4.1,2.1,5.7,3.7
		c1.6,1.6,2.9,3.4,3.9,5.5S596.2,95.5,596.2,97.9z M593.2,124.9v98.5h-29.5v-98.5H593.2z"/>
	<path class="st1" d="M649.1,224.9c-4.7,0-8.8-0.7-12.4-2c-3.6-1.4-6.6-3.3-9-5.8c-2.4-2.5-4.3-5.5-5.6-9.1
		c-1.3-3.5-1.9-7.5-1.9-11.9v-50.9h-8.4c-1.5,0-2.8-0.5-3.9-1.5c-1.1-1-1.6-2.4-1.6-4.3v-11.5l15.7-3l5.8-24c0.8-3,2.9-4.6,6.5-4.6
		h15.4v28.8H674v20.1h-24.4v48.9c0,2.3,0.6,4.2,1.7,5.7c1.1,1.5,2.7,2.2,4.8,2.2c1.1,0,2-0.1,2.7-0.3c0.7-0.2,1.4-0.5,1.9-0.8
		c0.5-0.3,1-0.5,1.5-0.8c0.5-0.2,1-0.3,1.7-0.3c0.9,0,1.6,0.2,2.1,0.6c0.5,0.4,1.1,1.1,1.7,1.9l8.9,14c-3.8,2.9-8.1,5-12.8,6.4
		C659,224.2,654.1,224.9,649.1,224.9z"/>
	<path class="st1" d="M780.3,124.9L727.7,249c-0.9,2-2,3.4-3.2,4.3c-1.3,0.9-3.3,1.4-6.1,1.4h-22l19-39.9L676,124.9h26
		c2.3,0,4,0.5,5.3,1.5c1.2,1,2.1,2.2,2.7,3.6l16.2,42.5c1.5,3.9,2.8,7.8,3.7,11.9c0.7-2,1.4-4.1,2.1-6.1c0.7-2,1.4-4,2.2-6
		l14.6-42.3c0.6-1.5,1.6-2.7,3-3.7c1.5-1,3-1.5,4.8-1.5H780.3z"/>
	<path class="st1" d="M924.8,187.6c0.8,0,1.5,0.1,2.3,0.4s1.5,0.8,2.2,1.5l12.7,13.4c-5.6,7.3-12.6,12.8-20.9,16.5
		c-8.4,3.7-18.3,5.6-29.8,5.6c-10.5,0-19.9-1.8-28.3-5.4c-8.3-3.6-15.4-8.5-21.2-14.8c-5.8-6.3-10.2-13.8-13.3-22.4
		c-3.1-8.6-4.7-18-4.7-28.2c0-10.3,1.7-19.8,5-28.5c3.4-8.6,8.1-16.1,14.2-22.4c6.1-6.3,13.4-11.1,21.9-14.6
		c8.5-3.5,17.8-5.2,28-5.2c5.2,0,10.1,0.5,14.7,1.4c4.6,0.9,8.9,2.2,12.9,3.8c4,1.6,7.7,3.6,11,5.8c3.4,2.3,6.3,4.8,8.9,7.4
		l-10.8,14.5c-0.7,0.9-1.5,1.7-2.5,2.4c-1,0.7-2.3,1.1-4,1.1c-1.1,0-2.2-0.3-3.2-0.8c-1-0.5-2.1-1.1-3.2-1.9
		c-1.1-0.7-2.4-1.5-3.8-2.4c-1.4-0.9-3-1.6-4.8-2.4c-1.9-0.7-4.1-1.3-6.6-1.9c-2.5-0.5-5.4-0.8-8.8-0.8c-5.3,0-10.2,1-14.6,2.9
		c-4.4,2-8.2,4.8-11.4,8.6c-3.2,3.8-5.7,8.4-7.4,13.9c-1.7,5.5-2.6,11.7-2.6,18.8c0,7.1,1,13.4,2.9,18.9c1.9,5.5,4.6,10.1,7.9,13.9
		c3.3,3.8,7.2,6.6,11.6,8.6c4.4,2,9.2,2.9,14.3,2.9c2.9,0,5.6-0.1,8-0.4c2.4-0.3,4.7-0.8,6.7-1.4s4.1-1.6,5.9-2.7
		c1.8-1.1,3.7-2.5,5.6-4.2c0.8-0.6,1.6-1.2,2.5-1.6C923,187.8,923.9,187.6,924.8,187.6z"/>
	<path class="st1" d="M996,123.4c7.5,0,14.3,1.2,20.4,3.5c6.1,2.3,11.4,5.7,15.8,10.1c4.4,4.4,7.8,9.7,10.3,15.9
		c2.4,6.2,3.7,13.3,3.7,21c0,7.9-1.2,14.9-3.7,21.2c-2.4,6.3-5.9,11.7-10.3,16.1c-4.4,4.4-9.7,7.8-15.8,10.2
		c-6.1,2.4-13,3.6-20.4,3.6c-7.5,0-14.4-1.2-20.6-3.6s-11.5-5.8-16-10.2c-4.5-4.4-7.9-9.8-10.4-16.1c-2.4-6.3-3.7-13.4-3.7-21.2
		c0-7.8,1.2-14.8,3.7-21c2.4-6.2,5.9-11.5,10.4-15.9s9.8-7.7,16-10.1C981.6,124.5,988.5,123.4,996,123.4z M996,203.1
		c6.8,0,11.8-2.4,15-7.2c3.2-4.8,4.8-12,4.8-21.8c0-9.8-1.6-17-4.8-21.8c-3.2-4.8-8.2-7.1-15-7.1c-7,0-12.1,2.4-15.3,7.1
		c-3.2,4.8-4.8,12-4.8,21.8c0,9.8,1.6,17,4.8,21.8C983.9,200.7,989,203.1,996,203.1z"/>
	<path class="st1" d="M1094.1,97.9c0,2.3-0.5,4.5-1.4,6.6c-1,2.1-2.2,3.9-3.9,5.4c-1.6,1.6-3.6,2.8-5.7,3.7c-2.2,0.9-4.5,1.4-7,1.4
		c-2.4,0-4.7-0.5-6.7-1.4c-2.1-0.9-3.9-2.2-5.6-3.7c-1.6-1.6-2.9-3.4-3.8-5.4c-0.9-2.1-1.4-4.3-1.4-6.6c0-2.4,0.5-4.7,1.4-6.7
		c0.9-2.1,2.2-3.9,3.8-5.5c1.6-1.6,3.5-2.8,5.6-3.7c2.1-0.9,4.3-1.3,6.7-1.3c2.5,0,4.8,0.4,7,1.3c2.2,0.9,4.1,2.1,5.7,3.7
		c1.6,1.6,2.9,3.4,3.9,5.5S1094.1,95.5,1094.1,97.9z M1091.1,124.9v98.5h-29.5v-98.5H1091.1z"/>
	<path class="st1" d="M1138.9,135.5c1.9-1.8,3.9-3.4,5.9-4.9c2-1.5,4.2-2.8,6.5-3.8c2.3-1,4.8-1.9,7.5-2.5c2.7-0.6,5.6-0.9,8.8-0.9
		c5.4,0,10.1,0.9,14.3,2.8c4.1,1.9,7.6,4.5,10.5,7.8c2.9,3.3,5,7.3,6.5,11.9c1.5,4.6,2.2,9.6,2.2,15v62.6h-29.5v-62.6
		c0-4.8-1.1-8.6-3.3-11.3c-2.2-2.7-5.5-4-9.8-4c-3.2,0-6.3,0.7-9.1,2c-2.8,1.4-5.6,3.2-8.2,5.6v70.3h-29.5v-98.5h18.2
		c3.7,0,6.1,1.6,7.2,4.9L1138.9,135.5z"/>
</g>
<g>
	<path class="st4" d="M452.9,295.4c0.5-2.7,0.9-4.6,1-5.7c0.1-1.1,0.4-2.7,0.7-4.9c5.1-1.2,9.6-2,13.5-2.5c3.9-0.5,7.7-0.7,11.3-0.7
		c4.1,0,7.9,0.5,11.3,1.4c3.4,1,6.1,2.5,8.1,4.6c1.9,2.1,2.9,5.1,2.9,9c0,2.1-0.3,7.6-0.9,16.3c-0.6,8.7-0.9,17.8-1.1,27.1
		c-2.8-0.1-5.5-0.1-7.9-0.1c-2.3,0-5,0-8,0.1c0.5-4.5,0.9-9.8,1.2-15.7l0.7-14c-1.4,0.9-2.5,1.6-3.3,2c-0.7,0.4-1.6,0.7-2.5,1
		c-0.9,0.3-2.6,0.8-4.9,1.5c-2.4,0.7-4.3,1.2-5.7,1.7c-1.4,0.5-2.7,1-3.9,1.7c-1.1,0.6-2.1,1.3-2.9,2.1c-0.8,0.8-1.4,1.6-1.7,2.4
		c-0.4,0.8-0.5,1.8-0.5,2.7c0,1.6,0.5,2.9,1.4,4.1c0.9,1.1,2.1,1.9,3.5,2.4c1.4,0.4,3,0.7,4.9,0.7c1.2,0,2.5-0.1,3.8-0.3
		c1.3-0.2,3.1-0.7,5.4-1.4c-0.8,2.1-1.7,5.3-2.8,9.5c-2.7,0.4-4.8,0.7-6.3,0.8c-1.6,0.1-3,0.2-4.4,0.2c-4.7,0-8.6-0.6-11.6-1.9
		s-5.3-3.3-6.7-6.1c-1.4-2.8-2.2-5.6-2.2-8.4c0-1.6,0.3-3.2,0.8-4.8s1.4-3,2.5-4.3c1.1-1.3,2.5-2.6,4.2-3.8c1.7-1.2,4.2-2.4,7.5-3.5
		c3.3-1.1,7.6-2.3,12.9-3.5c1.4-0.3,2.9-0.7,4.4-1.1c1.5-0.4,2.8-0.9,3.7-1.3c0.9-0.4,1.7-0.9,2.4-1.6c0.7-0.7,1.2-1.3,1.5-2
		c0.3-0.7,0.5-1.4,0.5-2.2c0-1.5-0.5-2.7-1.4-3.7c-1-1-2.2-1.7-3.7-2.1c-1.5-0.4-3.2-0.6-5-0.6C468.7,290.5,461.2,292.2,452.9,295.4
		z"/>
	<path class="st4" d="M513.8,340l1.1-14.6l1.3-28l0.6-24c0.1-4.3,0.1-7.7,0.1-10.1c3.9,0.1,6.7,0.1,8.3,0.1c1.9,0,4.5,0,7.7-0.1
		l-1.2,18.3l-1.3,29.1l-0.6,21.7l-0.1,7.6c-3.3-0.1-5.9-0.1-7.8-0.1C519.8,339.9,517.1,339.9,513.8,340z M531.7,308l11.4-13.9
		c1-1.2,2.1-2.7,3.5-4.4c1.4-1.8,3.1-4,5.1-6.8c3.9,0.1,6.7,0.1,8.5,0.1c2.5,0,5.6,0,9.4-0.1l-18.5,21.2l-3.3,4
		c2.7,4.3,10.3,15,22.8,31.9c-3.4-0.1-6.3-0.1-8.7-0.1c-2.4,0-5.4,0-8.9,0.1c-2.2-3.6-3.9-6.4-5.3-8.6c-1.4-2.2-2.6-4-3.8-5.6
		l-9.6-13.7C534,311.8,533.2,310.4,531.7,308z"/>
	<path class="st4" d="M575.4,338.9l-1.2-12.4c3.7,1.5,6.8,2.5,9.3,3.1c2.5,0.6,4.9,0.9,7,0.9s3.9-0.3,5.4-0.8
		c1.5-0.5,2.5-1.3,3.3-2.2c0.7-1,1.1-2,1.1-3.1c0-0.5,0-0.9-0.1-1.3c-0.1-0.4-0.3-0.8-0.5-1.3c-0.2-0.4-0.5-0.9-0.8-1.3
		c-0.3-0.4-0.8-0.8-1.3-1.3c-0.6-0.5-1.4-1.2-2.4-1.9l-3-2.4c-2.9-2.3-5.1-4.1-6.7-5.4c-1.5-1.3-2.8-2.6-3.9-4
		c-1-1.4-1.8-2.8-2.4-4.3c-0.5-1.5-0.8-3.1-0.8-4.6c0-2.7,0.8-5.3,2.5-7.8c1.7-2.5,4.1-4.3,7.3-5.4c3.2-1.1,6.9-1.7,11.2-1.7
		c4.9,0,10.6,0.6,17,1.7l0.7,11.7c-4.3-1.8-8.5-2.6-12.5-2.6c-2.2,0-4.1,0.2-5.7,0.6c-1.6,0.4-2.8,1.1-3.5,2
		c-0.7,0.9-1.1,1.9-1.1,2.9c0,0.6,0.1,1.3,0.3,1.9c0.2,0.6,0.6,1.3,1.2,1.9s1.2,1.3,1.9,1.9c0.7,0.6,2.3,1.8,4.6,3.5
		c2.3,1.8,4.4,3.4,6.1,4.8c1.7,1.4,3.2,2.9,4.3,4.3c1.1,1.4,2,3,2.6,4.6c0.6,1.6,0.9,3.3,0.9,5c0,2.8-0.9,5.4-2.6,7.8
		c-1.7,2.4-4.3,4.3-7.8,5.6s-7.4,2-11.7,2c-2.2,0-5-0.2-8.2-0.5C582.5,340.5,579.1,339.8,575.4,338.9z"/>
	<path class="st4" d="M678.3,327.3c-0.5,2.2-1.2,6.2-2.1,11.9c-4,0.9-7.4,1.4-10.2,1.7c-2.8,0.3-5.6,0.4-8.4,0.4
		c-4.9,0-9.3-0.5-13.2-1.5c-3.9-1-7.3-2.8-10.2-5.4c-2.9-2.6-5.1-5.8-6.5-9.6c-1.4-3.8-2.1-7.7-2.1-11.9c0-4.6,0.8-9.1,2.4-13.4
		c1.6-4.3,3.9-7.9,6.8-10.6c2.9-2.7,6.2-4.7,9.9-5.8c3.7-1.1,7.6-1.7,11.6-1.7c3.8,0,7.4,0.5,10.9,1.4c3.4,1,6.3,2.5,8.7,4.7
		c2.3,2.2,4.1,4.8,5.4,7.8c1.3,3,1.9,6.4,1.9,10.2c0,1.8-0.2,3.6-0.6,5.4l-41.2,0.1c-0.1,1.4-0.1,2.5-0.1,3.3c0,2.5,0.4,4.8,1.3,6.9
		c0.9,2.1,2.1,3.9,3.8,5.3c1.6,1.5,3.6,2.5,5.9,3.2c2.3,0.7,4.5,1,6.7,1c2.6,0,5.4-0.3,8.4-0.8C670.6,329.6,674.2,328.6,678.3,327.3
		z M642.1,304.6l26.3,0.1c0-1.8-0.1-3.1-0.2-4c-0.1-0.9-0.4-1.8-0.8-2.9c-0.4-1.1-0.9-2.1-1.6-2.9s-1.5-1.5-2.4-2.1
		c-0.9-0.6-1.9-1-3.1-1.3c-1.2-0.3-2.4-0.4-3.8-0.4c-1.6,0-3.1,0.2-4.6,0.7s-2.8,1.2-4.1,2.1c-1.2,0.9-2.2,2-3,3.1
		c-0.8,1.2-1.3,2.3-1.7,3.3C642.8,301.4,642.4,302.8,642.1,304.6z"/>
	<path class="st4" d="M690.4,365.8c0.9-10.4,1.8-24,2.5-40.6s1.1-30.1,1.1-40.5c7.1-1.3,12.6-2.1,16.5-2.5c3.9-0.4,7.8-0.6,11.6-0.6
		c5.1,0,9.7,0.6,13.9,1.8c4.2,1.2,7.6,3.2,10.1,6c2.5,2.8,4.4,6.1,5.6,9.8s1.8,7.6,1.8,11.6c0,4.1-0.6,8-1.7,11.8s-2.9,7.2-5.3,10.2
		c-2.4,3-5.2,5.2-8.3,6.6c-3.2,1.4-6.6,2-10.4,2c-2.2,0-4.4-0.3-6.5-0.8c-2.2-0.5-4-1.2-5.7-2.1c-1.6-0.9-3-1.7-4-2.6
		c-1-0.9-2.4-2.2-4-4l-0.9,24.4l-0.1,3.8c0,0.5-0.1,2.4-0.1,5.6c-3.4,0-6.1-0.1-8-0.1L690.4,365.8z M709.6,295
		c-0.3,2-0.5,3.8-0.6,5.2l-0.3,6.2c-0.1,2.7-0.2,4.7-0.2,5.9c0,2.3,0.2,4.5,0.7,6.6s1.4,4,2.8,5.8c1.4,1.8,3.1,3.1,5,4
		s3.9,1.4,6,1.4c2.9,0,5.4-0.8,7.8-2.4c2.3-1.6,4.2-4,5.4-7.1c1.3-3.1,1.9-6.5,1.9-10c0-3.9-0.7-7.2-2.1-10s-3.3-4.7-5.7-5.9
		c-2.4-1.2-5-1.9-8-1.9C718.4,292.8,714.1,293.5,709.6,295z"/>
	<path class="st4" d="M798.3,328.3c-0.4,2.1-1.2,5.9-2.1,11.5c-3.1,0.7-5.6,1.2-7.4,1.3s-3.5,0.3-5.1,0.3c-2.8,0-5.3-0.3-7.4-0.8
		c-2.2-0.5-4-1.5-5.4-2.8c-1.4-1.3-2.4-2.9-2.9-4.7c-0.5-1.8-0.8-3.6-0.8-5.5c0-0.5,0-1.1,0.1-2c0-0.8,0.2-3.5,0.4-8l1.3-23.4h-8.1
		c0.2-2.2,0.4-5.9,0.5-10.8h8.5c0.2-2.2,0.4-5.9,0.7-11.1l6.6-1.3c1.4-0.3,4.1-0.9,8-1.9c-0.3,5.1-0.4,9.8-0.5,14.2h14.3
		c-0.3,5.1-0.4,8.7-0.4,10.8h-14.3c-0.8,15.2-1.2,24.1-1.2,26.4c0,2.3,0.3,4.1,0.8,5.4c0.5,1.3,1.3,2.2,2.4,2.8s2.3,0.8,3.6,0.8
		c0.9,0,1.9-0.1,2.9-0.2S795.7,328.9,798.3,328.3z"/>
	<path class="st4" d="M857,327.3c-0.5,2.2-1.2,6.2-2.1,11.9c-4,0.9-7.4,1.4-10.2,1.7c-2.8,0.3-5.6,0.4-8.4,0.4
		c-4.9,0-9.3-0.5-13.2-1.5c-3.9-1-7.3-2.8-10.2-5.4c-2.9-2.6-5.1-5.8-6.5-9.6c-1.4-3.8-2.1-7.7-2.1-11.9c0-4.6,0.8-9.1,2.4-13.4
		c1.6-4.3,3.9-7.9,6.8-10.6c2.9-2.7,6.2-4.7,9.9-5.8s7.6-1.7,11.6-1.7c3.8,0,7.4,0.5,10.9,1.4c3.4,1,6.3,2.5,8.7,4.7
		c2.3,2.2,4.1,4.8,5.4,7.8c1.3,3,1.9,6.4,1.9,10.2c0,1.8-0.2,3.6-0.6,5.4l-41.2,0.1c-0.1,1.4-0.1,2.5-0.1,3.3c0,2.5,0.4,4.8,1.3,6.9
		c0.9,2.1,2.1,3.9,3.8,5.3c1.6,1.5,3.6,2.5,5.9,3.2c2.3,0.7,4.5,1,6.7,1c2.6,0,5.4-0.3,8.4-0.8C849.3,329.6,852.9,328.6,857,327.3z
		 M820.7,304.6l26.3,0.1c0-1.8-0.1-3.1-0.2-4c-0.1-0.9-0.4-1.8-0.8-2.9c-0.4-1.1-0.9-2.1-1.6-2.9s-1.5-1.5-2.4-2.1
		c-0.9-0.6-1.9-1-3.1-1.3c-1.2-0.3-2.4-0.4-3.8-0.4c-1.6,0-3.1,0.2-4.6,0.7c-1.5,0.5-2.8,1.2-4.1,2.1s-2.2,2-3,3.1
		c-0.8,1.2-1.3,2.3-1.7,3.3C821.5,301.4,821.1,302.8,820.7,304.6z"/>
	<path class="st4" d="M870.4,340l1.6-26.7l0.4-15.5c0.1-3.2,0.1-6.4,0.1-9.6c0-0.6,0-2.3-0.1-5.3c3.5,0.1,6,0.1,7.7,0.1
		c1.9,0,4.4,0,7.6-0.1l-0.3,7.9c1.4-2,2.6-3.5,3.7-4.5c1-1,2.1-1.8,3.4-2.6c1.3-0.7,2.6-1.3,4.2-1.6s3.1-0.6,4.7-0.6
		c1.5,0,3,0.2,4.6,0.6c0,3.5,0.2,7.9,0.5,13.3c-2.2-0.6-4.2-0.9-6-0.9c-2.2,0-4.1,0.3-5.8,1c-1.7,0.7-3.2,1.6-4.5,3
		c-1.3,1.3-2.4,3-3.3,4.9c-0.7,1.6-1.2,3.6-1.6,6.1c-0.3,1.9-0.5,5.3-0.7,10c-0.2,4.7-0.3,9.4-0.3,13.9c0,1.8,0.1,4,0.2,6.6
		c-2.8-0.1-5.5-0.1-7.8-0.1C876.4,339.9,873.7,339.9,870.4,340z"/>
	<path class="st4" d="M950.2,328.3c-0.4,2.1-1.2,5.9-2.1,11.5c-3.1,0.7-5.6,1.2-7.4,1.3s-3.5,0.3-5.1,0.3c-2.8,0-5.3-0.3-7.4-0.8
		c-2.2-0.5-4-1.5-5.4-2.8c-1.4-1.3-2.4-2.9-2.9-4.7c-0.5-1.8-0.8-3.6-0.8-5.5c0-0.5,0-1.1,0.1-2c0-0.8,0.2-3.5,0.4-8l1.3-23.4h-8.1
		c0.2-2.2,0.4-5.9,0.5-10.8h8.5c0.2-2.2,0.4-5.9,0.7-11.1l6.6-1.3c1.4-0.3,4.1-0.9,8-1.9c-0.3,5.1-0.4,9.8-0.5,14.2h14.3
		c-0.3,5.1-0.4,8.7-0.4,10.8h-14.3c-0.8,15.2-1.2,24.1-1.2,26.4c0,2.3,0.3,4.1,0.8,5.4c0.5,1.3,1.3,2.2,2.4,2.8s2.3,0.8,3.6,0.8
		c0.9,0,1.9-0.1,2.9-0.2S947.6,328.9,950.2,328.3z"/>
	<path class="st4" d="M1015.4,340l1.3-18.3l1.3-26.1l0.8-32.3c3.3,0.1,6,0.1,8.2,0.1c2.8,0,5.6,0,8.2-0.1l-1,13.4
		c-0.2,3.3-0.5,8.6-0.9,15.9c1.2-1.8,2.2-3.1,3-4c0.8-0.9,1.7-1.7,2.7-2.5c1-0.8,2-1.4,3.1-1.9s2.3-1,3.7-1.4c1.4-0.4,3-0.7,4.7-1
		c1.7-0.2,3.5-0.3,5.3-0.3c3.1,0,6.1,0.4,9,1.1c2.9,0.7,5.3,1.9,7.4,3.6c2.1,1.7,3.5,3.7,4.3,5.9c0.8,2.3,1.2,4.6,1.2,7.1
		c0,1.6-0.1,4.1-0.3,7.5l-1.4,24.5c-0.1,2.5-0.2,5.5-0.2,8.8c-3-0.1-5.7-0.1-8-0.1c-2.5,0-5.4,0-8.6,0.1c0.5-4.4,1-10.4,1.5-18.1
		s0.8-13.1,0.8-16.3c0-3-0.5-5.3-1.4-6.9c-1-1.7-2.4-2.9-4.2-3.7c-1.8-0.8-3.9-1.2-6.1-1.2c-2.8,0-5.3,0.5-7.5,1.5
		c-2.1,1-3.9,2.4-5.3,4.4c-1.2,1.6-2.1,3.9-2.9,6.9c-0.8,3.1-1.4,8-1.8,14.6c-0.2,3.2-0.4,9.5-0.6,18.8c-3-0.1-5.5-0.1-7.6-0.1
		C1021.8,339.9,1019,339.9,1015.4,340z"/>
	<path class="st4" d="M1140.3,327.3c-0.5,2.2-1.2,6.2-2.1,11.9c-4,0.9-7.4,1.4-10.2,1.7c-2.8,0.3-5.6,0.4-8.4,0.4
		c-4.9,0-9.3-0.5-13.2-1.5c-3.9-1-7.3-2.8-10.2-5.4c-2.9-2.6-5.1-5.8-6.5-9.6c-1.4-3.8-2.1-7.7-2.1-11.9c0-4.6,0.8-9.1,2.4-13.4
		c1.6-4.3,3.9-7.9,6.8-10.6c2.9-2.7,6.2-4.7,9.9-5.8s7.6-1.7,11.6-1.7c3.8,0,7.4,0.5,10.9,1.4c3.4,1,6.3,2.5,8.7,4.7
		c2.3,2.2,4.1,4.8,5.4,7.8c1.3,3,1.9,6.4,1.9,10.2c0,1.8-0.2,3.6-0.6,5.4l-41.2,0.1c-0.1,1.4-0.1,2.5-0.1,3.3c0,2.5,0.4,4.8,1.3,6.9
		c0.9,2.1,2.1,3.9,3.8,5.3c1.6,1.5,3.6,2.5,5.9,3.2c2.3,0.7,4.5,1,6.7,1c2.6,0,5.4-0.3,8.4-0.8
		C1132.6,329.6,1136.1,328.6,1140.3,327.3z M1104,304.6l26.3,0.1c0-1.8-0.1-3.1-0.2-4c-0.1-0.9-0.4-1.8-0.8-2.9
		c-0.4-1.1-0.9-2.1-1.6-2.9s-1.5-1.5-2.4-2.1c-0.9-0.6-1.9-1-3.1-1.3c-1.2-0.3-2.4-0.4-3.8-0.4c-1.6,0-3.1,0.2-4.6,0.7
		c-1.5,0.5-2.8,1.2-4.1,2.1s-2.2,2-3,3.1c-0.8,1.2-1.3,2.3-1.7,3.3C1104.8,301.4,1104.4,302.8,1104,304.6z"/>
	<path class="st4" d="M1153.7,340l1.6-26.7l0.4-15.5c0.1-3.2,0.1-6.4,0.1-9.6c0-0.6,0-2.3-0.1-5.3c3.5,0.1,6,0.1,7.7,0.1
		c1.9,0,4.4,0,7.6-0.1l-0.3,7.9c1.4-2,2.6-3.5,3.7-4.5c1-1,2.1-1.8,3.4-2.6c1.3-0.7,2.6-1.3,4.2-1.6s3.1-0.6,4.7-0.6
		c1.5,0,3,0.2,4.6,0.6c0,3.5,0.2,7.9,0.5,13.3c-2.2-0.6-4.2-0.9-6-0.9c-2.2,0-4.1,0.3-5.8,1c-1.7,0.7-3.2,1.6-4.5,3
		c-1.3,1.3-2.4,3-3.3,4.9c-0.7,1.6-1.2,3.6-1.6,6.1c-0.3,1.9-0.5,5.3-0.7,10c-0.2,4.7-0.3,9.4-0.3,13.9c0,1.8,0.1,4,0.2,6.6
		c-2.8-0.1-5.5-0.1-7.8-0.1C1159.7,339.9,1156.9,339.9,1153.7,340z"/>
</g>
<g>
</g>
<g>
</g>
<g>
</g>
<g>
</g>
<g>
</g>
<g>
</g>
<g>
</g>
<g>
</g>
<g>
</g>
<g>
</g>
<g>
</g>
<g>
</g>
<g>
</g>
<g>
</g>
<g>
</g>
</svg>
